# xmcd
#
# Track frame offsets:
#	150
#	14748
#	32371
#	45498
#	61290
#	83823
#	98164
#	118285
#	131280
#	152850
#
# Disc length: 2238 seconds
#
# Revision: 0
# Processed by: cddbd v1.5.2PL0 Copyright (c) Steve Scherf et al.
# Submitted via: dBpowerAMP V4.0
#
DISCID=7a08bc0a
DTITLE=texum - Different Strokes For Different Folks
DYEAR=2007
DGENRE=Country
TTITLE0=17th of May
TTITLE1=What You Leave Behind
TTITLE2=Guitars and Hearts
TTITLE3=The Last Farmer
TTITLE4=New Beginning
TTITLE5=The Inspector
TTITLE6=Nothing New
TTITLE7=Old Letters
TTITLE8=Sunny Day
TTITLE9=Music and Crowd
EXTD=
EXTT0=
EXTT1=
EXTT2=
EXTT3=
EXTT4=
EXTT5=
EXTT6=
EXTT7=
EXTT8=
EXTT9=
PLAYORDER=
